<svg xmlns="http://www.w3.org/2000/svg" width="592.719" height="611.5" viewBox="0 0 592.719 611.5">
  <defs>
    <style>
      .cls-1 {
        fill-rule: evenodd;
      }
    </style>
  </defs>
  <path id="Forma_1" data-name="Forma 1" class="cls-1" d="M593.718,285.557a38.178,38.178,0,0,0-38.063-38.064H38.34a37.992,37.992,0,0,0-9.074,74.9L81.749,570.682A41.938,41.938,0,0,0,123.567,612.5H477.274a41.938,41.938,0,0,0,41.818-41.818l53.056-251A38.059,38.059,0,0,0,593.718,285.557Zm-422.471,236.6a13.1,13.1,0,0,1-13.07,13.066h-3.6A13.108,13.108,0,0,1,141.5,522.159V369.2a13.1,13.1,0,0,1,13.071-13.065h3.6a13.1,13.1,0,0,1,13.07,13.065V522.159Zm95.681,0a13.106,13.106,0,0,1-13.071,13.066h-3.6a13.108,13.108,0,0,1-13.07-13.066V369.2a13.1,13.1,0,0,1,13.07-13.065h3.6A13.106,13.106,0,0,1,266.928,369.2V522.159Zm95.675,0a13.1,13.1,0,0,1-13.07,13.066h-3.6a13.1,13.1,0,0,1-13.065-13.066V369.2a13.1,13.1,0,0,1,13.065-13.065h3.6A13.106,13.106,0,0,1,362.609,369.2V522.159H362.6Zm95.681,0a13.1,13.1,0,0,1-13.066,13.066h-3.6a13.108,13.108,0,0,1-13.071-13.066V369.2a13.1,13.1,0,0,1,13.071-13.065h3.6A13.1,13.1,0,0,1,458.284,369.2V522.159ZM129.408,184.12c11.848-82.51,82.626-145.993,168.417-145.993S454.4,101.61,466.247,184.12c1.726,28.174,38.021,23.666,38.021,0C492.182,80.756,404.438.5,297.825,0.5S103.467,80.756,91.386,184.12C91.386,213.426,129.871,214.553,129.408,184.12Z" transform="translate(-0.281 -0.5)"/>
</svg>
