<svg xmlns="http://www.w3.org/2000/svg" width="35.469" height="23.688" viewBox="0 0 35.469 23.688">
  <defs>
    <style>
      .cls-1 {
        fill-rule: evenodd;
      }
    </style>
  </defs>
  <path id="Forma_1" data-name="Forma 1" class="cls-1" d="M30.179,4.494A17.952,17.952,0,0,0,.534,18.132c0,0.267.025,2.75,0.038,3.015v2.69H36.393V21.344l0.034-.2c0.011-.266.039-2.748,0.039-3.015A18.071,18.071,0,0,0,30.179,4.494ZM4.9,21.147c-0.016-.164.006-2.549,0-2.713H8.584V17.244H5.158a1.644,1.644,0,0,0-.259,0,13.671,13.671,0,0,1,3.538-8.59l0.094-.1L8.7,8.7l2.452,2.454,0.77-.772-2.605-2.6a13.479,13.479,0,0,1,8.542-3.535h0.186s0.077,0,.072.046V7.923h0.98V4.244a12.81,12.81,0,0,1,1.445.152,13.468,13.468,0,0,1,7.352,3.43l-2.6,2.6,0.723,0.726,2.5-2.5,0.139-.111L28.766,8.7a13.481,13.481,0,0,1,3.539,8.543H28.625v1.189l3.7,0s0,2.561-.011,2.709Zm18.43-8.586s-5.844,1.793-6.963,2.91a2.868,2.868,0,0,0,4.056,4.057C21.544,18.405,23.334,12.561,23.334,12.561Z" transform="translate(-0.531 -0.156)"/>
</svg>
