<svg xmlns="http://www.w3.org/2000/svg" width="125" height="109.25" viewBox="0 0 125 109.25">
  <defs>
    <style>
      .cls-1 {
        fill-rule: evenodd;
      }
    </style>
  </defs>
  <path id="Forma_1" data-name="Forma 1" class="cls-1" d="M124.341,37.983a2.536,2.536,0,0,0-1.875-.733H86.618a17.592,17.592,0,0,0,12.914-5.336A17.6,17.6,0,0,0,104.868,19,17.6,17.6,0,0,0,99.533,6.086,17.6,17.6,0,0,0,86.618.75q-8.719,0-13.687,6.273L62.5,20.466,52.074,7.023Q47.1,0.75,38.386.75A17.586,17.586,0,0,0,25.472,6.086,17.593,17.593,0,0,0,20.136,19a17.588,17.588,0,0,0,5.336,12.914A17.591,17.591,0,0,0,38.386,37.25H2.537A2.509,2.509,0,0,0-.07,39.857V65.93a2.508,2.508,0,0,0,2.607,2.606h7.822V102.43a7.789,7.789,0,0,0,7.821,7.82h88.644a7.788,7.788,0,0,0,7.822-7.82V68.535h7.818a2.505,2.505,0,0,0,2.606-2.606V39.857A2.536,2.536,0,0,0,124.341,37.983ZM81,13.7a6.97,6.97,0,0,1,5.621-2.525A7.787,7.787,0,0,1,94.439,19a7.787,7.787,0,0,1-7.82,7.821H70.812ZM38.385,26.821A7.787,7.787,0,0,1,30.562,19a7.787,7.787,0,0,1,7.822-7.821A6.969,6.969,0,0,1,44.006,13.7L54.272,26.821H38.385ZM75.537,52.893V95.585a3.692,3.692,0,0,1-1.466,3.138,6.08,6.08,0,0,1-3.747,1.1H54.68a6.077,6.077,0,0,1-3.748-1.1,3.689,3.689,0,0,1-1.467-3.138V37.25H75.537V52.893Z" transform="translate(0 -0.75)"/>
</svg>
