<?xml version="1.0" encoding="utf-8"?>
<!-- Generator: Adobe Illustrator 14.0.0, SVG Export Plug-In . SVG Version: 6.00 Build 43363)  -->
<!DOCTYPE svg PUBLIC "-//W3C//DTD SVG 1.1//EN" "http://www.w3.org/Graphics/SVG/1.1/DTD/svg11.dtd">
<svg version="1.1" id="Layer_1" xmlns="http://www.w3.org/2000/svg" xmlns:xlink="http://www.w3.org/1999/xlink" x="0px" y="0px"
	 width="360px" height="360px" viewBox="0 0 360 360" enable-background="new 0 0 360 360" xml:space="preserve">
<path fill-rule="evenodd" clip-rule="evenodd" fill="#31AFE4" d="M209.181,0.63c19.601-2.096,35.173,12.478,35.292,31.196
	c0.12,18.642-14.775,33.842-35.607,31.826c-16.289-1.577-29.375-15.462-28.044-34.032C181.884,14.785,193.603,2.296,209.181,0.63z
	 M201.934,11.659c-1.342,0.864-1.993,2.419-2.836,3.781c5.831,0.155,12.365-0.392,13.864,4.096c-3.886,0-7.772,0-11.659,0
	c-0.478,1.414-1.518,2.264-1.891,3.782c4.623,0.209,10.083-0.419,14.181,0.315c-0.583,6.14-6.273,7.171-13.235,6.932
	c-0.375,4.257,1.398,5.559,3.467,8.193c3.817,4.862,7.829,9.594,11.344,13.55c1.891,0,3.781,0,5.672,0
	c-4.346-6.684-9.826-12.232-14.18-18.907c6.521-0.936,11.04-3.875,12.604-9.768c1.651-0.029,2.837-0.524,4.727-0.315
	c0.452-1.438,1.839-1.942,1.891-3.782c-1.705,0.606-4.424,0.198-6.617,0.315c-0.106-1.995-1.681-2.521-1.891-4.412
	c2.205,0,4.411,0,6.617,0c0.397-1.493,1.732-2.049,1.891-3.781C217.898,11.659,209.916,11.659,201.934,11.659z"/>
<path fill-rule="evenodd" clip-rule="evenodd" fill="#31AFE4" d="M177.67,91.382c-10.604,5.95-18.731,12.868-26.154,22.688
	c-1.499,1.982-3.735,5.85-5.042,6.617c-2.487,1.46-7.175,1.453-10.714,1.576c-11.72,0.405-21.595-3.672-28.045-8.193
	c-9.602-6.731-16.727-17.112-18.906-29.621c-2.803-16.087,2.446-28.556,9.768-37.498c6.849-8.363,19.081-16.701,33.402-16.701
	C164.757,30.25,187.242,57.999,177.67,91.382z M118.114,46.951c-1.011,1.447-3.86,4.276-3.151,5.357
	c8.344-0.041,18.374-0.105,19.537,5.987c-5.806,0.238-10.64-0.495-16.386-0.315c-1.069,1.873-2.635,3.247-3.151,5.672
	c6.734,0.408,15.109-0.824,20.797,0.63c-1.312,8.457-9.141,10.396-19.537,9.769c0,1.681,0,3.361,0,5.042
	c4.634,6.163,10.773,13.503,16.07,20.167c1.455,1.83,3.887,6.068,5.672,6.617c2.7,0.831,5.705-0.637,8.193,0
	c-6.092-9.979-14.422-17.719-20.482-27.73c9.75-1.068,15.916-5.722,18.276-14.18c1.996,0,3.991,0,5.987,0
	c1.678-1.473,2.91-3.392,3.781-5.672c-3.237-0.157-7.498,0.228-9.769,0c-0.396-2.338-2.759-4.379-2.836-5.987
	c3.046,0,6.092,0,9.138,0c0.979-1.376,3.739-4.183,2.836-5.357C142.672,46.935,129.578,46.963,118.114,46.951z"/>
<path fill-rule="evenodd" clip-rule="evenodd" fill="#31AFE4" d="M212.017,102.096c27.671-2.164,48.219,15.315,57.035,32.771
	c12.011,23.784,4.883,52.555-9.139,67.749c-15.257,16.532-41.028,25.21-65.857,16.071c-21.16-7.789-41.412-29.119-39.074-61.762
	c1.212-16.922,9.188-29.04,17.961-37.813C182.113,109.941,194.331,103.479,212.017,102.096z M194.056,123.523
	c-1.6,2.392-3.575,4.408-4.727,7.248c11.447,0.001,23.368-0.471,26.784,7.563c-7.247-0.106-14.979,0.273-21.742-0.315
	c-2.011,2.086-3.211,4.982-4.727,7.563c9.201,0.251,18.808,0.099,27.729,0.63c-1.749,11.065-11.795,13.834-25.524,12.919
	c-0.685,1.625-0.142,4.48-0.314,6.617c6.411,8.157,14.036,17.881,21.112,26.785c1.735,2.184,5.324,7.857,7.563,8.508
	c3.569,1.038,7.714-0.795,11.028,0c-8.505-12.713-18.774-23.66-27.414-36.238c12.74-1.649,21.263-7.517,24.264-18.907
	c2.73,0,5.461,0,8.192,0c1.771-2.221,3.48-4.502,4.727-7.247c-4.411,0-8.823,0-13.234,0c-0.387-3.5-2.601-5.173-3.781-7.878
	c4.097,0,8.192,0,12.289,0c1.848-2.144,3.353-4.63,4.727-7.248C225.356,123.523,209.706,123.523,194.056,123.523z"/>
<path fill-rule="evenodd" clip-rule="evenodd" fill="#2E6276" d="M358.857,249.882c0,1.575,0,3.151,0,4.727
	c-2.43,10.943-9.417,14.936-18.275,20.482c-5.971,3.737-12.275,7.704-17.646,11.028c-24.278,15.029-46.179,29.728-69.954,44.115
	c-11.279,6.826-24.342,15.907-38.129,18.907c-6.79,1.478-15.927-0.304-22.688-1.261c-19.94-2.822-38.955-7.632-56.405-11.659
	c-12.373-2.855-25.966-6.563-38.758-6.617c-14.215-0.06-22.829,6.333-34.977,10.398c-1.707-29.174-3.106-58.655-4.727-87.915
	c14.455-1.411,28.096-9.674,42.54-13.55c15.173-4.071,30.976-2.63,47.267,3.781c6.486,2.553,12.914,5.29,22.058,5.987
	c8.55,0.651,18.028,0.116,27.1-0.315c17.72-0.844,40.402-2.655,49.787,5.356c5.413,4.622,6.928,16.701,3.151,23.949
	c-5.809,11.145-28.263,8.822-45.376,8.822c-15.409,0-30.118,0-44.746,0c9.855,8.617,31.516,7.878,51.678,7.878
	c10.349,0,20.736,0.453,28.675-1.575c15.954-4.078,26.587-23.389,15.44-40.649c-2.308-3.572-5.46-5.467-9.454-7.878
	c9.583-4.426,21.241-14.822,33.717-17.961c2.803-0.705,6.216-1.127,9.454-0.315c4.901,1.229,7.424,5.858,10.713,8.193
	c5.296-3.502,13.148-4.609,19.537-1.891c2.764,1.176,6.515,5.945,8.823,5.987c1.955,0.034,5.364-2.193,7.563-2.837
	C348.313,231.244,356.244,238.619,358.857,249.882z"/>
<path fill-rule="evenodd" clip-rule="evenodd" fill="#2E6276" d="M4.99,360.801c-0.105,0-0.21,0-0.315,0
	c-2.377-34.807-2.344-72.022-4.412-107.138c0-1.05,0-2.101,0-3.151c16.042-0.974,33.401-0.631,49.787-1.26
	c1.995,32.982,3.583,66.372,5.357,99.574C38.792,353.008,21.365,356.379,4.99,360.801z M20.43,326.769
	c-4.634,5.636-0.825,17.154,9.138,15.756c3.833-0.538,7.473-4.324,7.878-8.193c0.816-7.807-5.328-11.932-11.974-10.398
	C23.127,324.474,21.288,325.726,20.43,326.769z"/>
</svg>
