<?xml version="1.0" standalone="no"?>
	<!DOCTYPE svg PUBLIC "-//W3C//DTD SVG 20010904//EN"
 "http://www.w3.org/TR/2001/REC-SVG-20010904/DTD/svg10.dtd">
	<svg version="1.0" xmlns="http://www.w3.org/2000/svg" width="2000" height="2000" viewBox="0 0 449.000000 386.000000" preserveAspectRatio="xMidYMid meet">
		<metadata>
			Created by potrace 1.13, written by Peter Selinger 2001-2015
		</metadata>
		<g transform="translate(0.000000,386.000000) scale(0.100000,-0.100000)" fill="#000000" stroke="none">
			<path d="M2361 3839 c-844 -95 -1514 -709 -1681 -1541 -11 -54 -22 -135 -25
-180 -3 -46 -8 -107 -11 -135 l-5 -53 -314 -2 -315 -3 425 -425 424 -425 421
428 422 427 -318 0 -317 0 6 93 c13 195 68 399 152 568 85 168 172 286 312
420 218 209 478 339 778 391 101 17 147 19 295 15 191 -6 264 -18 427 -72 441
-147 796 -501 942 -942 148 -443 83 -916 -178 -1305 -221 -328 -553 -550 -951
-635 -120 -26 -449 -26 -570 0 -275 58 -531 187 -723 366 l-48 45 -150 -150
-150 -149 74 -70 c40 -38 116 -100 168 -137 751 -535 1770 -461 2437 177 382
365 592 856 592 1385 0 729 -406 1388 -1056 1713 -185 93 -344 145 -559 182
-110 20 -389 27 -504 14z" />
			<path d="M2350 2248 l1 -533 444 -263 c245 -144 451 -265 458 -267 11 -5 133
185 152 236 5 12 -75 64 -364 235 l-371 219 0 453 0 452 -160 0 -160 0 0 -532z" />
		</g>
	</svg>
