<?xml version="1.0" standalone="no"?>
<!DOCTYPE svg PUBLIC "-//W3C//DTD SVG 20010904//EN"
 "http://www.w3.org/TR/2001/REC-SVG-20010904/DTD/svg10.dtd">
<svg version="1.0" xmlns="http://www.w3.org/2000/svg"
 width="117.000000pt" height="134.000000pt" viewBox="0 0 117.000000 134.000000"
 preserveAspectRatio="xMidYMid meet">
<metadata>
Created by potrace 1.13, written by Peter Selinger 2001-2015
</metadata>
<g transform="translate(0.000000,134.000000) scale(0.100000,-0.100000)"
fill="#000000" stroke="none">
<path d="M256 1320 c-15 -5 -37 -17 -48 -27 -42 -38 -48 -65 -48 -220 l0 -148
42 1 43 1 5 135 c3 94 9 140 19 152 12 14 53 16 392 16 l378 0 15 -22 c14 -20
16 -88 16 -538 0 -450 -2 -518 -16 -538 l-15 -22 -378 0 c-339 0 -380 2 -392
16 -10 12 -16 58 -19 152 l-5 135 -43 1 -42 1 0 -150 c0 -131 3 -154 20 -182
42 -70 29 -68 481 -68 396 0 408 1 435 21 15 11 37 33 48 48 21 27 21 37 21
586 0 549 0 559 -21 586 -11 15 -33 37 -48 48 -27 20 -41 21 -419 23 -216 1
-405 -2 -421 -7z"/>
<path d="M366 984 c-3 -9 -6 -49 -6 -90 l0 -74 -163 0 c-206 0 -197 7 -197
-152 0 -155 -9 -148 198 -148 l161 0 3 -81 c4 -99 18 -117 65 -78 95 76 348
302 348 309 0 5 -58 59 -130 121 -71 62 -155 134 -184 161 -57 50 -85 59 -95
32z"/>
</g>
</svg>
