<?xml version="1.0" standalone="no"?>
<!DOCTYPE svg PUBLIC "-//W3C//DTD SVG 20010904//EN"
 "http://www.w3.org/TR/2001/REC-SVG-20010904/DTD/svg10.dtd">
<svg version="1.0" xmlns="http://www.w3.org/2000/svg"
 width="99.000000pt" height="96.000000pt" viewBox="0 0 99.000000 96.000000"
 preserveAspectRatio="xMidYMid meet">
<metadata>
Created by potrace 1.13, written by Peter Selinger 2001-2015
</metadata>
<g transform="translate(0.000000,96.000000) scale(0.100000,-0.100000)"
fill="#000000" stroke="none">
<path d="M597 922 c-15 -15 -27 -33 -27 -38 0 -5 23 -32 50 -59 l51 -50 -228
-5 c-257 -6 -274 -10 -353 -91 -40 -41 -80 -129 -80 -174 0 -23 4 -25 49 -25
48 0 48 0 55 38 8 52 49 108 99 134 39 21 59 23 252 26 l210 4 -20 -23 c-11
-12 -35 -37 -52 -55 -18 -18 -33 -37 -33 -42 0 -4 14 -21 30 -37 l30 -29 105
104 c65 65 105 112 105 125 0 13 -40 60 -103 123 -56 56 -105 102 -108 102 -3
0 -17 -13 -32 -28z"/>
<path d="M887 445 c-9 -54 -44 -102 -95 -133 -47 -27 -49 -27 -254 -30 -115
-2 -208 -1 -208 3 0 3 23 28 50 55 28 27 50 53 50 57 0 5 -14 22 -30 38 l-30
29 -72 -69 c-118 -115 -138 -139 -138 -162 0 -15 33 -56 99 -123 55 -55 104
-100 109 -100 4 0 21 13 36 29 32 34 31 39 -31 95 -24 22 -43 43 -43 47 0 4
102 9 228 11 210 3 230 5 267 25 86 46 146 129 161 221 l7 42 -50 0 c-50 0
-50 0 -56 -35z"/>
</g>
</svg>
