<?xml version="1.0" standalone="no"?>
<!DOCTYPE svg PUBLIC "-//W3C//DTD SVG 20010904//EN"
 "http://www.w3.org/TR/2001/REC-SVG-20010904/DTD/svg10.dtd">
<svg version="1.0" xmlns="http://www.w3.org/2000/svg"
 width="148.000000pt" height="184.000000pt" viewBox="0 0 148.000000 184.000000"
 preserveAspectRatio="xMidYMid meet">
<metadata>
Created by potrace 1.13, written by Peter Selinger 2001-2015
</metadata>
<g transform="translate(0.000000,184.000000) scale(0.100000,-0.100000)"
fill="#000000" stroke="none">
<path d="M159 1805 c-102 -53 -155 -148 -147 -264 8 -104 66 -190 154 -227 25
-11 32 -21 42 -65 19 -83 72 -178 135 -246 100 -106 212 -157 382 -172 116
-11 151 -22 222 -68 59 -39 93 -81 128 -155 31 -66 31 -72 1 -86 -46 -21 -104
-82 -126 -135 -80 -183 50 -380 250 -380 78 0 123 18 180 70 78 70 109 180 80
285 -16 55 -69 119 -125 150 -45 24 -50 31 -65 86 -50 181 -183 325 -354 382
-35 11 -107 25 -162 29 -144 13 -214 44 -287 125 -29 31 -87 141 -87 163 0 6
9 15 21 18 36 12 99 76 126 129 67 132 5 305 -131 367 -62 28 -177 25 -237 -6z
m186 -180 c56 -55 15 -155 -62 -155 -25 0 -43 8 -64 29 -37 37 -38 79 -3 120
34 41 92 44 129 6z m916 -1284 c60 -60 22 -150 -64 -151 -83 0 -120 100 -56
154 41 35 83 34 120 -3z"/>
<path d="M1084 1811 c-203 -92 -209 -390 -10 -493 38 -20 39 -20 33 -68 -7
-61 -36 -118 -81 -160 l-34 -33 81 -49 82 -49 33 37 c60 70 102 184 102 279 0
26 5 34 23 39 35 9 94 63 123 112 36 61 44 164 19 231 -23 60 -77 118 -137
149 -61 31 -172 33 -234 5z m180 -192 c35 -41 34 -83 -3 -120 -60 -59 -151
-22 -151 63 0 85 100 122 154 57z"/>
<path d="M290 853 c-55 -62 -91 -152 -97 -241 l-6 -78 -47 -26 c-154 -86 -176
-309 -42 -430 57 -52 105 -70 182 -71 80 0 141 24 195 78 131 132 94 353 -75
440 -25 13 -30 22 -30 53 0 64 20 113 66 162 l45 48 -48 28 c-26 15 -62 38
-79 51 l-32 23 -32 -37z m54 -509 c58 -59 20 -154 -63 -154 -32 0 -44 6 -65
31 -35 41 -34 83 3 120 39 38 88 40 125 3z"/>
</g>
</svg>
