<?xml version="1.0" standalone="no"?>
<!DOCTYPE svg PUBLIC "-//W3C//DTD SVG 20010904//EN"
 "http://www.w3.org/TR/2001/REC-SVG-20010904/DTD/svg10.dtd">
<svg version="1.0" xmlns="http://www.w3.org/2000/svg"
 width="56.000000pt" height="88.000000pt" viewBox="0 0 56.000000 88.000000"
 preserveAspectRatio="xMidYMid meet">
<metadata>
Created by potrace 1.13, written by Peter Selinger 2001-2015
</metadata>
<g transform="translate(0.000000,88.000000) scale(0.100000,-0.100000)"
fill="#000000" stroke="none">
<path d="M44 855 c-58 -40 -52 -109 15 -167 20 -17 80 -72 134 -122 55 -50
105 -95 113 -99 8 -4 14 -16 14 -25 -1 -9 -68 -77 -150 -151 -82 -74 -154
-147 -161 -162 -23 -56 24 -119 88 -119 28 0 53 18 166 119 217 194 297 275
297 300 0 50 -35 88 -328 349 -110 98 -141 111 -188 77z"/>
</g>
</svg>
